<svg xmlns="http://www.w3.org/2000/svg" xmlns:xlink="http://www.w3.org/1999/xlink" viewBox="0 0 555.67 714.01"><defs><style>.cls-1{fill:none;}.cls-2{isolation:isolate;}.cls-3{clip-path:url(#clip-path);}.cls-4{mix-blend-mode:multiply;}.cls-5{clip-path:url(#clip-path-2);}.cls-6{fill:#9ec53b;}.cls-7{clip-path:url(#clip-path-3);}.cls-8{fill:#009a4b;}.cls-9{clip-path:url(#clip-path-4);}.cls-10{fill:#2376b4;}.cls-11{fill:#2ea2da;}</style><clipPath id="clip-path" transform="translate(0 0)"><polygon class="cls-1" points="308.41 368.23 52.38 702.03 464.15 702.03 464.15 112.19 308.41 368.23"/></clipPath><clipPath id="clip-path-2" transform="translate(0 0)"><rect class="cls-1" x="176.13" width="197.76" height="178.43"/></clipPath><clipPath id="clip-path-3" transform="translate(0 0)"><rect class="cls-1" x="387.56" y="232.97" width="168.11" height="170.54"/></clipPath><clipPath id="clip-path-4" transform="translate(0 0)"><rect class="cls-1" y="218.64" width="120.35" height="139.22"/></clipPath></defs><title>Recurso 2m</title><g class="cls-2"><g id="Capa_2" data-name="Capa 2"><g id="Capa_1-2" data-name="Capa 1"><g class="cls-3"><g class="cls-4"><g class="cls-5"><path class="cls-6" d="M193.39,135.35A98.91,98.91,0,0,1,215.71.34a1.68,1.68,0,1,1,2,2.69,95.57,95.57,0,0,0,9.64,159.28A95.53,95.53,0,0,0,356.09,29a1.68,1.68,0,1,1,2.85-1.77A98.88,98.88,0,0,1,193.39,135.35" transform="translate(0 0)"/></g></g><g class="cls-4"><g class="cls-7"><path class="cls-8" d="M524.75,385.86A85.25,85.25,0,1,1,486,234a1.45,1.45,0,1,1-.45,2.86,82.18,82.18,0,0,0-15.67-.94,83.44,83.44,0,0,0-17.52,2.55A82.34,82.34,0,1,0,552.81,337.9a1.45,1.45,0,0,1,2.82.69,85.26,85.26,0,0,1-30.88,47.27" transform="translate(0 0)"/></g></g><path class="cls-8" d="M410.3,256.68a8.32,8.32,0,1,1,8.32,8.32,8.33,8.33,0,0,1-8.32-8.32" transform="translate(0 0)"/><g class="cls-4"><g class="cls-9"><path class="cls-8" d="M50.71,218.64A69.59,69.59,0,1,1,.33,336.24,1.18,1.18,0,1,1,2,334.61,67.22,67.22,0,1,0,8.7,235.76,1.18,1.18,0,0,1,7,235.58a1.19,1.19,0,0,1,.18-1.67,69.62,69.62,0,0,1,43.49-15.27" transform="translate(0 0)"/></g></g><path class="cls-8" d="M140.7,296a31.33,31.33,0,1,1-31.33-31.33A31.33,31.33,0,0,1,140.7,296" transform="translate(0 0)"/><path class="cls-6" d="M342.62,165.65a33.42,33.42,0,1,0-33.42-33.42,33.42,33.42,0,0,0,33.42,33.42" transform="translate(0 0)"/><path class="cls-6" d="M418.62,397.93A21.67,21.67,0,1,0,397,376.26a21.67,21.67,0,0,0,21.67,21.67" transform="translate(0 0)"/><path class="cls-6" d="M409.3,673.86a1.11,1.11,0,0,1,0-.72,63.86,63.86,0,0,1,93.11-33.81,1.08,1.08,0,0,1-1.13,1.84,61.69,61.69,0,0,0-89.94,32.66,1.08,1.08,0,0,1-2,0" transform="translate(0 0)"/><path class="cls-6" d="M391.15,672a21.67,21.67,0,1,1-12.81,27.85A21.67,21.67,0,0,1,391.15,672" transform="translate(0 0)"/><path class="cls-10" d="M92,153.79a1.11,1.11,0,0,1,1.27-.75c30.24,5.77,61-11.7,71.66-40.65a1.12,1.12,0,0,1,1.43-.67,1.14,1.14,0,0,1,.67,1.44c-11,30-42.88,48.05-74.18,42.07a1.12,1.12,0,0,1-.89-1.31.93.93,0,0,1,0-.13" transform="translate(0 0)"/><path class="cls-10" d="M99.84,168.31a17.15,17.15,0,1,0-17.15-17.15,17.15,17.15,0,0,0,17.15,17.15" transform="translate(0 0)"/><path class="cls-11" d="M424.78,514.16a.76.76,0,0,1,.75.67,43.14,43.14,0,0,0,40.64,37.59.77.77,0,0,1,.72.79.78.78,0,0,1-.79.72A44.66,44.66,0,0,1,424,515a.74.74,0,0,1,.65-.83h.09" transform="translate(0 0)"/><path class="cls-11" d="M438.69,521.25a11.53,11.53,0,1,1-11.53-11.52,11.53,11.53,0,0,1,11.53,11.52" transform="translate(0 0)"/><path class="cls-11" d="M211.74,158.53a17.15,17.15,0,1,0-17.15-17.15,17.15,17.15,0,0,0,17.15,17.15" transform="translate(0 0)"/></g></g></g></g></svg>