<svg xmlns="http://www.w3.org/2000/svg" xmlns:xlink="http://www.w3.org/1999/xlink" viewBox="0 0 477.8 613.95"><defs><style>.cls-1{fill:none;}.cls-2{isolation:isolate;}.cls-3{clip-path:url(#clip-path);}.cls-4{mix-blend-mode:multiply;}.cls-5{clip-path:url(#clip-path-2);}.cls-6{fill:#9ec53b;}.cls-7{clip-path:url(#clip-path-3);}.cls-8{fill:#009a4b;}.cls-9{clip-path:url(#clip-path-4);}.cls-10{fill:#2376b4;}.cls-11{fill:#2ea2da;}</style><clipPath id="clip-path" transform="translate(0 0)"><polygon class="cls-1" points="45.04 96.47 45.04 603.65 210.6 332.97 399.1 96.47 45.04 96.47"/></clipPath><clipPath id="clip-path-2" transform="translate(0 0)"><rect class="cls-1" x="151.45" width="170.04" height="153.43"/></clipPath><clipPath id="clip-path-3" transform="translate(0 0)"><rect class="cls-1" x="333.25" y="200.32" width="144.55" height="146.64"/></clipPath><clipPath id="clip-path-4" transform="translate(0 0)"><rect class="cls-1" y="188" width="103.48" height="119.71"/></clipPath></defs><title>Recurso 1m</title><g class="cls-2"><g id="Capa_2" data-name="Capa 2"><g id="Capa_1-2" data-name="Capa 1"><g class="cls-3"><g class="cls-4"><g class="cls-5"><path class="cls-6" d="M166.29,116.38A85,85,0,0,1,185.48.29a1.45,1.45,0,1,1,1.74,2.31A82.14,82.14,0,1,0,306.18,25a1.45,1.45,0,0,1,2.46-1.53,85,85,0,0,1-142.35,93" transform="translate(0 0)"/></g></g><g class="cls-4"><g class="cls-7"><path class="cls-8" d="M451.21,331.79A73.3,73.3,0,1,1,417.92,201.2a1.25,1.25,0,1,1-.39,2.47,70.81,70.81,0,1,0,57.81,86.87,1.25,1.25,0,1,1,2.42.6,73.33,73.33,0,0,1-26.55,40.65" transform="translate(0 0)"/></g></g><path class="cls-8" d="M352.8,220.71a7.15,7.15,0,1,1,7.15,7.15,7.15,7.15,0,0,1-7.15-7.15" transform="translate(0 0)"/><g class="cls-4"><g class="cls-9"><path class="cls-8" d="M43.6,188a59.9,59.9,0,0,1,55.54,37.54,59.85,59.85,0,0,1-33.22,77.82,59.44,59.44,0,0,1-45.79-.49A59.83,59.83,0,0,1,.28,289.12a1,1,0,0,1,0-1.44,1,1,0,0,1,1.44,0,57.77,57.77,0,0,0,8.32,7.22A58.77,58.77,0,0,0,20.93,301,57.8,57.8,0,1,0,7.48,202.72a1,1,0,0,1-1.27-1.59A59.87,59.87,0,0,1,43.6,188" transform="translate(0 0)"/></g></g><path class="cls-8" d="M121,254.5a26.94,26.94,0,1,1-26.93-26.94A26.93,26.93,0,0,1,121,254.5" transform="translate(0 0)"/><path class="cls-6" d="M294.6,142.43a28.74,28.74,0,1,0-28.73-28.73,28.73,28.73,0,0,0,28.73,28.73" transform="translate(0 0)"/><path class="cls-6" d="M360,342.17a18.64,18.64,0,1,0-18.63-18.64A18.65,18.65,0,0,0,360,342.17" transform="translate(0 0)"/><path class="cls-6" d="M351.94,579.42a.94.94,0,0,1,0-.62A54.92,54.92,0,0,1,432,549.73a.93.93,0,1,1-1,1.58,53.07,53.07,0,0,0-77.34,28.08.92.92,0,0,1-1.17.59,1,1,0,0,1-.57-.56" transform="translate(0 0)"/><path class="cls-6" d="M336.33,577.83a18.64,18.64,0,1,1-11,23.95,18.63,18.63,0,0,1,11-23.95" transform="translate(0 0)"/><path class="cls-10" d="M79.09,132.24a1,1,0,0,1,1.1-.65,55.22,55.22,0,0,0,61.62-34.95,1,1,0,0,1,1.23-.58,1,1,0,0,1,.57,1.24c-9.45,25.76-36.87,41.32-63.78,36.18a1,1,0,0,1-.76-1.13.43.43,0,0,1,0-.11" transform="translate(0 0)"/><path class="cls-10" d="M85.84,144.72A14.75,14.75,0,1,0,71.1,130a14.74,14.74,0,0,0,14.74,14.74" transform="translate(0 0)"/><path class="cls-11" d="M321.49,474.23a.79.79,0,0,1,.69-.78,45.12,45.12,0,0,0,39.33-42.51.79.79,0,0,1,.82-.75.81.81,0,0,1,.76.82,46.73,46.73,0,0,1-40.72,44,.79.79,0,0,1-.87-.69.34.34,0,0,1,0-.1" transform="translate(0 0)"/><path class="cls-11" d="M328.91,459.69a12.06,12.06,0,1,1-12.06,12.05,12,12,0,0,1,12.06-12.05" transform="translate(0 0)"/><path class="cls-11" d="M182.07,136.31a14.75,14.75,0,1,0-14.75-14.75,14.75,14.75,0,0,0,14.75,14.75" transform="translate(0 0)"/></g></g></g></g></svg>