<svg xmlns="http://www.w3.org/2000/svg" viewBox="0 0 578.41 144.85"><title>Recurso 1m</title><g id="f93542cc-2702-42ba-a00c-6a94899285d4" data-name="Capa 2"><g id="f35e625d-a44f-42ec-a948-f7b05062ba2c" data-name="Capa 1"><path d="M283.62,106.63a48.67,48.67,0,0,1-15.51-2.42V75.76c2.56-.2,5.87-.41,9.48-.41,16.11,0,25.75,6.12,25.75,17.85,0,6-4.82,13.43-19.72,13.43M286,72.43c-8.14,0-16.41.34-24.51.34-6.74,0-11.69-.25-16.93-.34v2.92h2.7c6.89,0,9.88,1.71,9.88,8.23v48.71c0,6.48-3,8.15-9.88,8.15h-2.7v2.95c5.24-.11,10.19-.34,16.93-.34s12.91.23,19.53.34v-2.95h-4.36c-6,0-8.58-1.09-8.58-10.54V109.8c4.67.31,9.19.61,13.85.61,27.67,0,35.76-10.21,35.76-19.13,0-7.9-7.49-18.85-31.69-18.85m-98.54,67.95c-15.29,0-24.71-14.48-24.71-27.66,0-18.86,11.73-25.86,24.17-25.86,15.54,0,24.52,14.4,24.52,27.51,0,14.95-7.55,26-24,26m-.27-57.58c-17.9,0-34.09,12.78-34.09,31.32,0,16.47,14.19,30,33.82,30,21.8,0,34.17-16,34.17-30.64,0-17.3-15.82-30.66-33.9-30.66m-75.78,30.38a42.32,42.32,0,0,1-8.48-.58V87.78c2.5-.16,4.87-.33,7.87-.33,17.35,0,21.09,10.09,21.09,13.74,0,8.59-9.24,12-20.48,12m14.25,1.88c6.23-1.32,17.69-4.61,17.69-15.45,0-3.8-4-15.27-26.07-15.27-5.49,0-11.48.18-19.81.18-5.59,0-11.59-.09-16-.18v2.42h2.24c5.75,0,8.25,1.41,8.25,6.8V134c0,5.4-2.5,6.81-8.25,6.81H81.54v2.42c4.37-.09,10.37-.17,16-.17s10.7.08,16.2.17V140.8h-3.62c-5,0-7.12-.91-7.12-8.8V116.29c9.61.16,11.23.33,14.11,3.4l14.6,15.85c.8.88,1.57,1.66,2.35,2.38,11.56,9.56,22.58,6.45,22.58,6.45l0-1.13c-8.35,0-30.87-28.18-30.87-28.18m261,15.93s-4.45,8.23-6.68,8.89-19.77.17-19.77.17c-11.91-.37-13.58-2.33-13.58-8V93.54c0-5.39,2.5-6.8,8.26-6.8h2.87V84.32c-5.87.08-11.13.17-16.58.17-5.6,0-11.59-.09-16-.17v2.42h2.25c5.75,0,8.24,1.41,8.24,6.8V134c0,5.39-2.49,6.79-8.24,6.79h-2.25v2.41c4.37-.06,53.4-.31,57.34-.16l5.74-11.88ZM553.49,84.53c-4.61,0-9.61-.1-13.5-.18v2.42h1.51c6.75,0,8.62,2,8.88,11.54l.74,34h-.24l-47.53-48c-3.13.08-6.35.18-9.84.18-3.87,0-7.62-.1-11-.18v2.42H486c6.25,0,9,1.24,9,7.22,0,9.63-.25,25.38-.76,36.34-.37,8.66-1.5,10.48-8.11,10.48h-2v2.42c3.88-.08,9-.17,13.72-.17s9.6.09,13.73.17v-2.42H509.1c-5.88,0-7.88-1.9-8.13-8.69-.5-12.86-.75-25.62-.75-38.47h.25l50.65,50.45h3.72l2.24-48.37c.37-8,4-9,7.87-9h2V84.35c-4.5.08-9,.18-13.46.18M443.16,118.17c-4.19.86-10-.92-18.36-4.64a44.29,44.29,0,0,0-4.52-1.74l9.48-18.53,14,22.71,1,1.59a6,6,0,0,1-1.59.61m22.89,14.6L434,82h-2.38l-16.42,28.66a23,23,0,0,0-3.72-.14c-6.48.29-14.63,2-18.63,10.85-.21.47.06.68.35.31,2-2.53,6.3-5.21,9.19-5.74a18.6,18.6,0,0,1,9.68.19l-9,15.74c-3.86,6.89-6.59,9-13.44,9h-1.49v2.41c3-.16,23.27-.16,27.64,0l1.27-2.45s-9.14.25-9.14-2.62c0-1.83,1.25-4.31,2.13-6l6.62-13.13.5-1c.39.17.78.35,1.19.55,2.79,1.33,8.5,3.52,12.68,3.55,5.86,0,10.72-1.08,14.43-3.56l.3.47,9.12,15c.49.75,1.75,3,1.75,4.15,0,1.74-2.38,2.66-6.38,2.66h-3.11v2.41c4.61-.16,10.61-.17,17.23-.17s12.23,0,17,.17v-2.41h-2.63c-5.74,0-9.61-3.24-12.61-8.06M39,106.63a48.71,48.71,0,0,1-15.51-2.42V75.76c2.56-.2,5.87-.41,9.49-.41,16.1,0,25.74,6.12,25.74,17.85,0,6-4.82,13.43-19.72,13.43m2.4-34.2c-8.12,0-16.4.34-24.5.34-6.74,0-11.69-.25-16.93-.34v2.92H2.7c6.89,0,9.88,1.71,9.88,8.23v48.71c0,6.48-3,8.15-9.88,8.15H0v2.95c5.24-.11,10.19-.34,16.93-.34,6.59,0,12.91.23,19.54.34v-2.95H32.1c-6,0-8.58-1.09-8.58-10.54V109.8c4.67.31,9.18.61,13.85.61,27.67,0,35.76-10.21,35.76-19.13,0-7.9-7.49-18.85-31.7-18.85" style="fill:#231f20"/><rect x="115.26" width="336.49" height="60.25" style="fill:#fff"/><rect x="117.29" y="2.01" width="56.5" height="56.24" style="fill:#e32529"/><polygon points="449.72 58.26 175.66 58.25 175.66 2 449.72 2 449.72 58.26" style="fill:#010101"/><path d="M198.53,15a14.32,14.32,0,0,1,3-.42,7.37,7.37,0,0,1,3.74.95,6,6,0,0,1,2.51,2.84,9.6,9.6,0,0,1,.92,4.21,7.56,7.56,0,0,1-1.87,5.31,5.78,5.78,0,0,1-4.42,2,14.46,14.46,0,0,1-1.81-.13c-.61-.08-1.31-.2-2.05-.33Zm10.37-2.59a24.61,24.61,0,0,0-7.94-1H187v2h1.9a3.46,3.46,0,0,1,2.74,1c.22.26.6,1.12.6,3.95V42.1c0,2.6-.29,3.43-.46,3.69a3.17,3.17,0,0,1-2.88,1.28H187v2h16.78v-2h-1.92a3.35,3.35,0,0,1-2.7-1c-.24-.27-.62-1.13-.62-4v-10c.92.19,1.83.35,2.69.46a22.31,22.31,0,0,0,2.93.2c3.71,0,6.65-1,8.71-3A10.23,10.23,0,0,0,216,22.05,9.35,9.35,0,0,0,213.91,16a11.29,11.29,0,0,0-5-3.61" style="fill:#fff"/><path d="M250.08,11.11v2.05H252a3.41,3.41,0,0,1,2.72,1c.23.26.62,1.13.62,3.94V33c0,3.8-.34,6.52-1,8.08a8,8,0,0,1-3.7,3.75,12.75,12.75,0,0,1-6.24,1.51,10.08,10.08,0,0,1-4.55-.94A7.41,7.41,0,0,1,237.05,43a9.81,9.81,0,0,1-1.35-4.08,36,36,0,0,1-.39-4.82v-16c0-2.41.31-3.36.57-3.76a3.06,3.06,0,0,1,2.76-1.19h1.91V11.11H223.77v2.05h1.88a3.27,3.27,0,0,1,2.57.87c.36.4.79,1.45.79,4.08V32.45c0,4.53.29,7.54.9,9.22a11.84,11.84,0,0,0,4.63,5.85c2.17,1.45,5.35,2.18,9.46,2.18,3.79,0,6.84-.77,9.07-2.27A11.29,11.29,0,0,0,257.59,42a26.4,26.4,0,0,0,1.14-8.73V18.39c0-2.55.3-3.38.47-3.64a3.18,3.18,0,0,1,2.87-1.59H264V11.11Z" style="fill:#fff"/><path d="M284.86,14.9a21.5,21.5,0,0,1,3.69-.46,7.17,7.17,0,0,1,5.29,2,7,7,0,0,1,2,5.21A6.76,6.76,0,0,1,293.36,27c-1.66,1.41-4.19,2.13-7.53,2.13h-1Zm21.05,30.72a18.63,18.63,0,0,1-4.34-4.71S296,33.29,294.39,31a12.59,12.59,0,0,0,6.37-3.5,9.09,9.09,0,0,0,2.36-6.23,8.66,8.66,0,0,0-2.07-5.79,10.38,10.38,0,0,0-5-3.3,32.19,32.19,0,0,0-8.81-.89H273.31v2h1.9a3.36,3.36,0,0,1,2.71,1c.24.26.62,1.12.62,3.95V42.09c0,2.6-.29,3.43-.46,3.69a3.14,3.14,0,0,1-2.87,1.28h-1.9v2H290.1v-2h-2a3.28,3.28,0,0,1-2.66-1c-.25-.27-.63-1.12-.63-4V31.94l.27,0h.76c.53,0,1.18,0,1.94,0L300.36,49.1H311v-2l-.47,0a10.82,10.82,0,0,1-4.66-1.44" style="fill:#fff"/><path d="M320.57,11.34v2h1.82a4.54,4.54,0,0,1,2.23.59,1.89,1.89,0,0,1,.88.9,11.54,11.54,0,0,1,.32,3.48V42.11c0,2.72-.35,3.59-.55,3.85a3.4,3.4,0,0,1-2.88,1.11h-1.82v2h16.79v-2h-1.85a4.34,4.34,0,0,1-2.18-.58,1.93,1.93,0,0,1-.91-.9,11.62,11.62,0,0,1-.31-3.48V18.35c0-2.71.35-3.57.57-3.85a3.35,3.35,0,0,1,2.83-1.12h1.85v-2Z" style="fill:#fff"/><path d="M391.23,11.33h-13.9v2.05h1.81a3.55,3.55,0,0,1,2.8,1c.24.26.64,1.11.64,3.91V37.92l-22-26.59H349.81v2.05h.53a8.1,8.1,0,0,1,2.24.22,8.61,8.61,0,0,1,2.28,1.05,15.45,15.45,0,0,1,2.21,2.27V42.2c0,2.56-.32,3.4-.5,3.68a3.28,3.28,0,0,1-2.92,1.19h-1.82v2h13.9v-2h-1.84a3.62,3.62,0,0,1-2.8-1c-.23-.26-.61-1.11-.61-3.9V21l23.77,28.68H386V18.26c0-2.58.31-3.42.51-3.69a3.22,3.22,0,0,1,2.9-1.19h1.84Z" style="fill:#fff"/><path d="M416.74,20.78l5.33,13h-11Zm21.17,26.28a5.21,5.21,0,0,1-3.2-1.11A13.33,13.33,0,0,1,432,41.36l-12.7-30.85h-1.8L404.2,41a16.37,16.37,0,0,1-3,5.15,5.46,5.46,0,0,1-2.71.93l-.44.07v2h12.63v-2l-.48,0c-2.07-.15-2.87-.47-3.19-.71a1.37,1.37,0,0,1-.59-1.07,8.53,8.53,0,0,1,.87-3s1.86-4.22,2.38-5.42h13.63c.48,1.14,2.06,5,2.06,5a10.62,10.62,0,0,1,1,3.54,1.37,1.37,0,0,1-.57,1.09,4.86,4.86,0,0,1-2.68.61l-.5,0v2h15.72v-2Z" style="fill:#fff"/><rect x="119.31" y="4.02" width="52.47" height="52.22" style="fill:#fff"/><rect x="121.33" y="38.16" width="16.14" height="16.06" style="fill:#e32529"/><rect x="153.61" y="38.16" width="16.14" height="16.06" style="fill:#e32529"/><rect x="137.47" y="22.1" width="16.14" height="16.07" style="fill:#e32529"/><rect x="121.33" y="6.03" width="16.14" height="16.07" style="fill:#e32529"/><rect x="153.61" y="6.03" width="16.14" height="16.07" style="fill:#e32529"/><path d="M458.61,4.33c.61,0,1-.24,1-.75a.78.78,0,0,0-.88-.74h-1.28V4.33Zm-1.94-2.14h2.18c1.22,0,1.63.75,1.63,1.28a1.38,1.38,0,0,1-1.41,1.41v0c.43.15.73.56,1.14,1.23l.6.94h-1l-.43-.76c-.63-1.1-.86-1.32-1.47-1.32h-.47V7.08h-.8Zm2-1.43a3.81,3.81,0,1,0,3.83,3.81A3.8,3.8,0,0,0,458.67.76m0,8.37a4.57,4.57,0,1,1,4.59-4.56,4.57,4.57,0,0,1-4.59,4.56" style="fill:#231f20"/><path d="M573.76,88.2c.61,0,1-.24,1-.75s-.36-.72-.89-.72h-1.28V88.2Zm-1.94-2.14H574c1.22,0,1.63.75,1.63,1.28a1.38,1.38,0,0,1-1.4,1.41v0c.42.15.72.58,1.14,1.23l.6,1h-1l-.43-.77c-.62-1.1-.86-1.32-1.47-1.32h-.47V91h-.8Zm2-1.42a3.8,3.8,0,1,0,3.82,3.8,3.8,3.8,0,0,0-3.82-3.8m0,8.36a4.57,4.57,0,1,1,4.58-4.56A4.56,4.56,0,0,1,573.83,93" style="fill:#231f20"/></g></g></svg>