<?xml version="1.0" encoding="utf-8"?>
<!-- Generator: Adobe Illustrator 23.0.3, SVG Export Plug-In . SVG Version: 6.00 Build 0)  -->
<svg version="1.0" id="Capa_1" xmlns="http://www.w3.org/2000/svg" xmlns:xlink="http://www.w3.org/1999/xlink" x="0px" y="0px"
	 viewBox="0 0 788.3 148.6" enable-background="new 0 0 788.3 148.6" xml:space="preserve">
<title>Recurso 1</title>
<g>
	<g>
		<g id="Capa_1-2">
			<path fill="#6E6F71" d="M363.9,144.4c-0.9,0-1.6-0.7-1.6-1.6V10.2c-0.1-0.9,0.6-1.7,1.5-1.7c0.9-0.1,1.7,0.6,1.7,1.5
				c0,0.1,0,0.2,0,0.3v132.6C365.5,143.7,364.8,144.4,363.9,144.4z"/>
			<path fill="#009A4B" d="M610.9,54.7h-9.7v39.6c0,1.4-0.3,1.7-1.7,1.7h-1.2c-1.4,0-1.7-0.3-1.7-1.7V54.7h-12.6
				c-1.4,0-1.7-0.2-1.7-1.5v-1c0-1.3,0.3-1.5,1.7-1.5h29.7c1.2,0,1.5,0.1,1.5,0.9C615.1,53.1,613.8,54.7,610.9,54.7"/>
			<path fill="#009A4B" d="M642.5,72.7h11.8c1.7,0,1.9,0.3,1.9,2.1v16.8c0,1.5-0.3,1.9-1.4,2.4c-4.6,2-9.6,3-14.6,2.9
				c-16.3,0-23.2-9.6-23.2-23.2c0-14.2,6.7-23.6,23.4-23.6c6.9,0,11.1,1.7,13.7,3.5c1,0.8,1.7,2,1.7,3.3c0,0.9-0.2,1.3-1,1
				c-4.3-2.5-9.2-3.9-14.2-3.8c-13.8,0-18.6,7.8-18.6,19.6c0,11.1,4.5,19.1,18.2,19.1c3.9,0.1,7.8-0.7,11.4-2.2V76.8h-7.5
				c-1.7,0.1-3.1-1.1-3.2-2.7c0-0.1,0-0.2,0-0.3C640.8,72.8,641.2,72.7,642.5,72.7"/>
			<path fill="#009A4B" d="M670.7,94.3c0,1.4-0.3,1.7-1.7,1.7h-1.2c-1.5,0-1.7-0.3-1.7-1.7V52.7c0-1.7,0.3-2,1.9-2h0.8
				c1.7,0,1.9,0.3,1.9,2L670.7,94.3z"/>
			<path fill="#231F20" d="M595.2,113.5h4.2c0.6,0,0.7,0.1,0.7,0.8v6c0,0.5-0.1,0.7-0.5,0.8c-1.6,0.7-3.4,1-5.2,1
				c-5.8,0-8.2-3.4-8.2-8.3c0-5,2.4-8.4,8.3-8.4c1.7-0.1,3.4,0.3,4.9,1.2c0.4,0.3,0.6,0.7,0.6,1.2c0,0.3-0.1,0.5-0.3,0.4
				c-1.5-0.9-3.3-1.4-5.1-1.3c-4.9,0-6.6,2.8-6.6,7c0,3.9,1.6,6.8,6.5,6.8c1.4,0,2.7-0.2,4-0.8V115h-2.7c-0.6,0.1-1.1-0.4-1.2-1
				c0,0,0-0.1,0-0.1C594.5,113.6,594.7,113.6,595.2,113.5"/>
			<path fill="#231F20" d="M604.5,116.9v4.2c0,0.5-0.1,0.6-0.6,0.6h-0.3c-0.5,0-0.6-0.1-0.6-0.6v-9.3c0-0.4,0-0.6,0.3-0.6
				c0.9,0,1.3,0.4,1.3,1.3v0.7c0.3-1.4,1.5-2.3,2.9-2.2c1.3,0,1.7,0.5,1.7,1.2c0,0.4,0,0.5-0.4,0.4c-0.4-0.1-0.8-0.2-1.2-0.2
				C605.5,112.4,604.5,114.1,604.5,116.9"/>
			<path fill="#231F20" d="M617.9,120.6v-0.3c-0.8,1.1-2.1,1.7-3.5,1.6c-2.6,0-3.7-1.5-3.7-4v-6.1c0-0.4,0-0.6,0.3-0.6
				c0.9,0,1.3,0.4,1.3,1.3v5.4c-0.2,1.2,0.7,2.3,1.9,2.5c0.2,0,0.4,0,0.5,0c1.6,0.2,2.9-1,3.1-2.5c0-0.1,0-0.1,0-0.2v-5.9
				c0-0.4,0-0.6,0.3-0.6c0.9,0,1.3,0.4,1.3,1.3v8.8c0,0.4,0,0.6-0.3,0.6C618.3,121.9,617.9,121.5,617.9,120.6"/>
			<path fill="#231F20" d="M624.3,120.1v6.3c0,0.5-0.1,0.6-0.6,0.6h-0.3c-0.5,0-0.6-0.1-0.6-0.6v-14.6c0-0.4,0-0.6,0.3-0.6
				c0.9,0,1.3,0.4,1.3,1.3v0.5c0.9-1.3,2.3-2.1,3.9-2c3.2,0,5,2.2,5,5.5s-1.8,5.4-5,5.4C626.6,122,625.2,121.3,624.3,120.1
				 M627.8,120.4c2.5,0,3.6-1.7,3.6-3.9s-1.2-4-3.6-4s-3.7,2-3.7,4S625.2,120.4,627.8,120.4"/>
			<path fill="#231F20" d="M640.5,111.1c3.5,0,5.4,2.2,5.4,5.4s-2,5.4-5.4,5.4s-5.5-2.1-5.5-5.4S637,111.1,640.5,111.1 M640.5,120.5
				c2.4,0,3.8-1.6,3.8-4s-1.3-4-3.8-4s-3.8,1.7-3.8,4S638,120.5,640.5,120.5"/>
			<path fill="#009A4B" d="M648.5,121.2v-14.7c0-0.7,0.1-0.8,0.8-0.8h7.8c0.4,0,0.5,0,0.5,0.3c0,0.6-0.5,1.1-1.5,1.1h-5.8v5.6h5.6
				c0.4,0,0.5,0,0.5,0.3c0,0.6-0.5,1.1-1.5,1.1h-4.5v6.2h6.7c0.5,0,0.6,0.1,0.6,0.6v0.3c0,0.4-0.1,0.5-0.6,0.5h-7.6
				C648.7,121.8,648.5,121.7,648.5,121.2"/>
			<path fill="#009A4B" d="M667.8,121.8h-0.3c-0.5,0-0.6-0.1-0.6-0.6v-5.8c0-1.6-0.7-2.8-2.6-2.8c-1.6-0.1-2.9,1.1-3,2.6
				c0,0.1,0,0.2,0,0.3v5.8c0,0.6-0.1,0.6-0.6,0.6h-0.3c-0.5,0-0.6-0.1-0.6-0.6v-9.3c0-0.4,0-0.6,0.3-0.6c0.9,0,1.3,0.4,1.3,1.3v0.2
				c0.8-1.1,2.1-1.7,3.4-1.6c2.7,0,3.8,1.6,3.8,4.1v6C668.4,121.7,668.3,121.8,667.8,121.8"/>
			<path fill="#009A4B" d="M672.6,117.2c0.2,2.5,1.6,3.2,3.8,3.2c1.4,0,2.7-0.3,4-0.9c0.3-0.1,0.5,0,0.5,0.3c0,0.6-0.4,1.1-0.9,1.3
				c-1.2,0.5-2.5,0.8-3.8,0.8c-3.2,0-5.3-1.4-5.3-5.2s1.8-5.7,5.1-5.7s4.9,2.1,4.9,5.2c0,0.5-0.1,0.9-0.9,0.9L672.6,117.2z
				 M672.6,115.9h6.7c-0.1-2.1-1.1-3.5-3.3-3.5C673.9,112.4,672.8,113.8,672.6,115.9"/>
			<path fill="#009A4B" d="M685.1,116.9v4.2c0,0.5-0.1,0.6-0.6,0.6h-0.3c-0.5,0-0.6-0.1-0.6-0.6v-9.3c0-0.4,0-0.6,0.3-0.6
				c0.9,0,1.3,0.4,1.3,1.3v0.7c0.3-1.4,1.5-2.3,2.9-2.2c1.3,0,1.7,0.5,1.7,1.2c0,0.4,0,0.5-0.4,0.4c-0.4-0.1-0.8-0.2-1.2-0.2
				C686,112.4,685.1,114.1,685.1,116.9"/>
			<path fill="#009A4B" d="M691.4,126.2c-0.5-0.2-0.9-0.6-0.9-1.2c0-0.4,0.2-0.5,0.5-0.3c1.2,0.6,2.6,0.9,4,0.9
				c1.9,0,4.1-0.6,4.1-4.5V120c-0.9,1.3-2.4,2-3.9,1.9c-3.2,0-5-2.2-5-5.4s1.8-5.5,5-5.5c1.6-0.1,3.1,0.7,3.9,2v-0.4
				c0-1,0.4-1.4,1.3-1.4c0.3,0,0.3,0.1,0.3,0.6v9.4c0,4.6-2.7,5.7-5.5,5.7C694,127.1,692.6,126.8,691.4,126.2 M695.6,112.6
				c-2.4,0-3.6,1.8-3.6,4s1.2,3.9,3.6,3.9s3.7-1.9,3.7-3.9S698.2,112.6,695.6,112.6"/>
			<path fill="#009A4B" d="M705.3,106c0.2-0.3,0.5-0.5,0.8-0.4h0.8c0.3,0,0.4,0.2,0.1,0.5l-2.2,2.3c-0.2,0.2-0.4,0.3-0.6,0.2h-0.7
				c-0.2,0-0.3-0.1-0.1-0.3L705.3,106z M705.6,112.5v8.6c0,0.5-0.1,0.6-0.6,0.6h-0.3c-0.5,0-0.6-0.1-0.6-0.6v-9.3
				c0-0.4,0-0.6,0.3-0.6C705.2,111.2,705.6,111.6,705.6,112.5"/>
			<path fill="#009A4B" d="M712,116c1.1,0,2.2,0.1,3.3,0.2v-1.4c0-2.2-1.8-2.4-3.1-2.4c-1,0-1.9,0.1-2.9,0.4
				c-0.6,0.2-0.7,0.1-0.7-0.2c-0.1-0.5,0.3-1,0.8-1.1c1-0.3,2-0.4,3-0.4c1.5,0,4.4,0.4,4.4,3.6v6.6c0,0.4,0,0.6-0.3,0.6
				c-0.8,0-1.2-0.3-1.3-1c-1.1,0.8-2.5,1.2-3.9,1.1c-2.4,0-3.5-1-3.5-3.1S709.3,116,712,116 M715.3,117.4c-1-0.1-2-0.2-3-0.2
				c-1.7,0-2.8,0.2-2.8,1.5s0.9,1.8,2.3,1.8c1.2,0.1,2.5-0.3,3.5-1L715.3,117.4z"/>
			<path fill="#009A4B" d="M721.2,121.8c-0.5,0-0.6-0.1-0.6-0.6v-14.8c0-0.6,0.1-0.8,0.7-0.8h4.4c3.2,0,4.5,1.8,4.5,4
				s-0.9,3.2-2.4,3.6c2.3,0.4,3.5,1.7,3.5,4c0,2.6-1.6,4.4-5.1,4.4L721.2,121.8z M722.2,107v5.6h3.5c1.4,0.2,2.7-0.8,2.9-2.2
				c0-0.2,0-0.4,0-0.6c0-1.6-0.8-2.8-3.1-2.8H722.2z M722.2,114v6.3h3.7c2.7,0,3.7-1.3,3.7-3.2c0-2.1-1.3-3.1-3.7-3.1H722.2z"/>
			<path fill="#009A4B" d="M738.7,111.1c3.5,0,5.4,2.2,5.4,5.4s-2,5.4-5.4,5.4s-5.5-2.1-5.5-5.4S735.2,111.1,738.7,111.1
				 M738.7,120.5c2.4,0,3.8-1.6,3.8-4s-1.3-4-3.8-4s-3.8,1.7-3.8,4S736.3,120.5,738.7,120.5"/>
			<path fill="#009A4B" d="M747.2,126.2c-0.6-0.3-0.9-0.6-0.9-1.2s0.2-0.5,0.5-0.3c1.2,0.6,2.6,0.9,4,0.9c1.9,0,4.1-0.6,4.1-4.5V120
				c-0.9,1.3-2.4,2-3.9,1.9c-3.2,0-5-2.2-5-5.4s1.8-5.5,5-5.5c1.6-0.1,3.1,0.7,3.9,2v-0.4c0-1,0.4-1.4,1.3-1.4
				c0.3,0,0.3,0.1,0.3,0.6v9.4c0,4.6-2.7,5.7-5.5,5.7C749.7,127.1,748.4,126.8,747.2,126.2 M751.4,112.6c-2.4,0-3.6,1.8-3.6,4
				s1.2,3.9,3.6,3.9c2.6,0,3.7-1.9,3.7-3.9S754,112.6,751.4,112.6"/>
			<path fill="#009A4B" d="M764.6,111.1c3.5,0,5.4,2.2,5.4,5.4s-2,5.4-5.4,5.4s-5.5-2.1-5.5-5.4S761.1,111.1,764.6,111.1
				 M764.6,120.5c2.4,0,3.8-1.6,3.8-4s-1.3-4-3.8-4s-3.8,1.7-3.8,4S762.2,120.5,764.6,120.5"/>
			<path fill="#009A4B" d="M774.7,108.7v2.5h2.8c0.4,0,0.5,0.1,0.5,0.5v0.3c0,0.5-0.1,0.5-0.5,0.5h-2.8v5.9c0,1.5,0.8,1.9,1.5,1.9
				c0.5,0,1.1-0.1,1.6-0.4c0.3-0.1,0.4,0,0.4,0.4c0,0.2,0,0.5-0.2,0.7c-0.5,0.6-1.4,0.9-2.2,0.8c-1.8,0-2.7-1.1-2.7-3.3v-5.9h-1.3
				c-0.4,0-0.5,0-0.5-0.5v-0.3c0-0.5,0.1-0.5,0.5-0.5h1.3v-0.8c0-1.6,0.5-2.3,1.3-2.3C774.7,108.2,774.7,108.3,774.7,108.7"/>
			<path fill="#009A4B" d="M783.4,116c1.1,0,2.2,0.1,3.3,0.2v-1.4c0-2.2-1.8-2.4-3.1-2.4c-1,0-1.9,0.1-2.9,0.4
				c-0.6,0.2-0.7,0.1-0.7-0.2c-0.1-0.5,0.3-1,0.8-1.1c1-0.3,2-0.4,3-0.4c1.5,0,4.4,0.4,4.4,3.6v6.6c0,0.4,0,0.6-0.3,0.6
				c-0.8,0-1.2-0.3-1.3-1c-1.1,0.8-2.5,1.2-3.9,1.1c-2.4,0-3.5-1-3.5-3.1S780.7,116,783.4,116 M786.7,117.4c-1-0.1-2-0.2-3-0.2
				c-1.7,0-2.8,0.2-2.8,1.5s0.9,1.8,2.3,1.8c1.2,0.1,2.5-0.3,3.5-1L786.7,117.4z M784.5,106c0.2-0.3,0.5-0.5,0.8-0.4h0.8
				c0.3,0,0.4,0.2,0.1,0.5l-2.2,2.3c-0.2,0.2-0.4,0.3-0.6,0.2h-0.7c-0.2,0-0.3-0.1-0.1-0.3L784.5,106z"/>
			<path fill="#9EC53B" d="M451.3,115.4c-0.2,0-0.3-0.1-0.5-0.2c-19.1-15.7-21.8-43.9-6.1-62.9c1.9-2.3,4.1-4.5,6.5-6.4
				c0.3-0.3,0.8-0.2,1.1,0.1c0.3,0.3,0.2,0.8-0.1,1.1c0,0,0,0,0,0c-18.6,15-21.5,42.2-6.6,60.8c1.8,2.3,3.9,4.4,6.2,6.2
				c0.3,0.3,0.3,0.7,0.1,1C451.7,115.3,451.5,115.4,451.3,115.4"/>
			<g>
				<g>
					<defs>
						<rect id="SVGID_1_" x="444.9" y="34.8" width="88.5" height="88.5"/>
					</defs>
					<clipPath id="SVGID_2_">
						<use xlink:href="#SVGID_1_"  overflow="visible"/>
					</clipPath>
					<g clip-path="url(#SVGID_2_)">
						<path fill="#9EC53B" d="M489.2,123.2c-23.7,0.1-43.3-18.6-44.3-42.3c0-0.4,0.3-0.8,0.7-0.8s0.8,0.3,0.8,0.7
							c0.3,5.8,1.7,11.5,4.2,16.7c10.3,21.3,35.8,30.1,57.1,19.9c21.3-10.3,30.1-35.8,19.9-57.1c-6.9-14.2-21-23.4-36.7-24.1
							c-0.4,0-0.7-0.4-0.7-0.8c0,0,0,0,0,0c0-0.4,0.4-0.7,0.8-0.7c0,0,0,0,0,0c24.4,0.9,43.5,21.4,42.6,45.8
							C532.7,104.5,513.1,123.3,489.2,123.2"/>
					</g>
				</g>
			</g>
			<g>
				<g>
					<defs>
						<rect id="SVGID_3_" x="448" y="24.3" width="76.5" height="88.5"/>
					</defs>
					<clipPath id="SVGID_4_">
						<use xlink:href="#SVGID_3_"  overflow="visible"/>
					</clipPath>
					<g clip-path="url(#SVGID_4_)">
						<path fill="#009A4B" d="M492.3,112.8c-24.4,0-44.2-19.9-44.2-44.3s19.9-44.2,44.3-44.2c9.2,0,18.1,2.9,25.6,8.2
							c2.3,1.6,4.4,3.5,6.4,5.5c0.2,0.3,0.1,0.8-0.2,1c-0.3,0.2-0.6,0.2-0.9,0c-1.9-2-3.9-3.8-6.2-5.3
							c-19.3-13.7-45.9-9.1-59.6,10.1s-9.1,45.9,10.1,59.6c15.5,11,36.5,10.4,51.4-1.5c0.3-0.3,0.8-0.2,1.1,0.1
							c0.3,0.3,0.2,0.8-0.1,1.1C512.1,109.5,502.3,112.9,492.3,112.8"/>
					</g>
				</g>
			</g>
			<path fill="#009A4B" d="M435,63.7c0-11,8.9-19.9,19.9-19.9c11,0,19.9,8.9,19.9,19.9c0,11-8.9,19.9-19.8,19.9
				C444,83.6,435,74.8,435,63.7C435,63.7,435,63.7,435,63.7"/>
			<path fill="#009A4B" d="M480.1,53.3c0-11,8.9-19.9,19.9-19.9c11,0,19.9,8.9,19.9,19.9c0,11-8.9,19.9-19.9,19.9
				C489,73.3,480.1,64.3,480.1,53.3C480.1,53.3,480.1,53.3,480.1,53.3"/>
			<path fill="#9EC53B" d="M496,109.6c-0.9-8.3,5.1-15.8,13.4-16.7c8.3-0.9,15.8,5.1,16.7,13.4s-5.1,15.8-13.4,16.7c0,0,0,0-0.1,0
				C504.3,123.9,496.9,117.9,496,109.6"/>
			<path fill="#9EC53B" d="M482.5,25.8c0-8.4,6.8-15.2,15.2-15.1c8.4,0,15.2,6.8,15.1,15.2c0,8.4-6.8,15.1-15.2,15.1
				C489.3,41,482.5,34.2,482.5,25.8C482.5,25.8,482.5,25.8,482.5,25.8"/>
			<path fill="#9EC53B" d="M445.7,126.8c0-8.4,6.8-15.2,15.1-15.2c8.4,0,15.2,6.8,15.2,15.1s-6.8,15.2-15.1,15.2c0,0,0,0,0,0
				C452.5,142,445.7,135.2,445.7,126.8L445.7,126.8"/>
			<path fill="#2376B4" d="M475.1,94.7c0-2.9,2.3-5.2,5.2-5.2s5.2,2.3,5.2,5.2s-2.3,5.2-5.2,5.2l0,0
				C477.4,99.9,475.1,97.6,475.1,94.7"/>
			<path fill="#2EA2DA" d="M543.2,39.8c-0.4,0-0.7-0.3-0.8-0.7c-2.7-20.7-19.8-36.6-40.7-37.6c-0.4,0-0.7-0.4-0.7-0.8
				s0.4-0.7,0.8-0.7c21.6,1.1,39.4,17.5,42.1,39C544,39.4,543.7,39.8,543.2,39.8L543.2,39.8"/>
			<path fill="#2EA2DA" d="M515.5,94.1c0-9.6,7.7-17.3,17.3-17.3s17.3,7.7,17.3,17.3s-7.7,17.3-17.3,17.3l0,0
				C523.3,111.4,515.5,103.6,515.5,94.1C515.5,94.1,515.5,94.1,515.5,94.1"/>
			<path fill="#2EA2DA" d="M529.3,32.7c0-6.4,5.2-11.5,11.5-11.5c6.4,0,11.5,5.2,11.6,11.5c0,6.4-5.2,11.5-11.5,11.5c0,0,0,0,0,0
				C534.4,44.2,529.3,39.1,529.3,32.7"/>
			<path fill="#2EA2DA" d="M453.2,25.8c0-2.9,2.3-5.2,5.2-5.2c2.9,0,5.2,2.3,5.2,5.2s-2.3,5.2-5.2,5.2
				C455.5,31,453.2,28.7,453.2,25.8C453.2,25.8,453.2,25.8,453.2,25.8"/>
			<path fill="#009A4B" d="M503.3,148.3c-1.9-0.8-2.8-2.9-2-4.8s2.9-2.8,4.8-2c1.9,0.8,2.8,2.9,2,4.8
				C507.3,148.1,505.2,149,503.3,148.3C503.3,148.3,503.3,148.3,503.3,148.3"/>
			<path fill="#2076B3" d="M484.6,120.9c0-6.4,5.2-11.5,11.5-11.5c6.4,0,11.5,5.2,11.5,11.5c0,6.4-5.2,11.5-11.5,11.5c0,0,0,0,0,0
				C489.7,132.4,484.6,127.3,484.6,120.9"/>
			<path fill="#2076B3" d="M425.5,100c0-6.4,5.2-11.5,11.5-11.5c6.4,0,11.5,5.2,11.5,11.5c0,6.4-5.2,11.5-11.5,11.5c0,0,0,0,0,0
				C430.6,111.5,425.5,106.4,425.5,100"/>
			<path fill="#009A4B" d="M417.9,41.3c-1.9-0.8-2.8-3-2-4.8c0.8-1.9,3-2.8,4.8-2s2.8,3,2,4.8c0,0,0,0,0,0
				C422,41.1,419.8,42,417.9,41.3C417.9,41.3,417.9,41.3,417.9,41.3"/>
			<path fill="#231F20" d="M177.3,29.8h9.1c1.4,0,1.5,0.2,1.5,1.6v13c0,1.1-0.2,1.4-1.1,1.8c-3.6,1.5-7.4,2.3-11.3,2.2
				c-12.6,0-18-7.5-18-18c0-11,5.2-18.4,18.2-18.4c5.4,0,8.6,1.3,10.6,2.7c0.8,0.6,1.3,1.6,1.4,2.6c0,0.7-0.1,1-0.8,0.8
				c-3.4-2-7.2-3-11.1-2.9c-10.7,0-14.5,6.1-14.5,15.2c0,8.6,3.5,14.8,14.1,14.8c3,0.1,6.1-0.5,8.8-1.7V33h-5.8
				c-1.3,0.1-2.4-0.8-2.5-2.1c0-0.1,0-0.2,0-0.3C176,29.9,176.3,29.8,177.3,29.8"/>
			<path fill="#231F20" d="M197.6,37.3v9.2c0,1.2-0.2,1.4-1.4,1.4h-0.7c-1.1,0-1.4-0.2-1.4-1.4V26.2c0-1,0-1.3,0.7-1.3
				c2,0,2.8,0.9,2.8,2.8v1.6c1.2-3.6,3.5-4.9,6.4-4.9s3.6,1.1,3.6,2.7c0,0.8-0.1,1-0.8,0.8c-0.9-0.2-1.8-0.4-2.7-0.4
				C199.8,27.5,197.7,31.2,197.6,37.3"/>
			<path fill="#231F20" d="M227,45.3v-0.7c-1.4,2-3.9,3.5-7.6,3.5c-5.7,0-8-3.3-8-8.7V26.1c0-0.9,0-1.2,0.7-1.2c2,0,2.8,0.9,2.8,2.8
				v11.8c0,3.2,1.5,5.5,5.4,5.5c4.4,0,6.4-2.5,6.8-6V26.1c0-0.9,0-1.2,0.7-1.2c2,0,2.8,0.9,2.8,2.8v19.2c0,0.9,0,1.2-0.7,1.2
				C227.8,48.1,227,47.3,227,45.3"/>
			<path fill="#231F20" d="M240.8,44.3v13.7c0,1.2-0.2,1.4-1.4,1.4h-0.7c-1.1,0-1.4-0.2-1.4-1.4V26.1c0-0.9,0-1.2,0.7-1.2
				c2,0,2.8,0.9,2.8,2.8v1.2c1.6-2.5,4.3-4.3,8.6-4.3c7,0,10.9,4.9,10.9,11.9s-3.8,11.8-10.9,11.8C245.1,48.3,242.4,46.7,240.8,44.3
				 M248.5,45.1c5.4,0,8-3.7,8-8.5s-2.6-8.8-7.9-8.8c-5.7,0-8,4.3-8,8.8S242.9,45.1,248.5,45.1"/>
			<path fill="#231F20" d="M276.3,24.6c7.5,0,11.9,4.7,11.9,11.9s-4.3,11.8-11.9,11.8s-11.9-4.6-11.9-11.8S268.6,24.6,276.3,24.6
				 M276.3,45.2c5.3,0,8.2-3.5,8.2-8.7s-2.9-8.9-8.2-8.9s-8.3,3.7-8.3,8.9S270.9,45.2,276.3,45.2"/>
			<path fill="#009A4B" d="M159.6,91.2V59.1c0-1.4,0.3-1.7,1.6-1.7h17c0.8,0,1.1,0,1.1,0.6c0,1.3-1,2.5-3.4,2.5h-12.8v12.2h12.2
				c0.8,0,1.1,0,1.1,0.7c0,1.3-1,2.5-3.4,2.5h-9.9v13.6h14.6c1.1,0,1.3,0.2,1.3,1.2v0.8c0,1-0.2,1.2-1.3,1.2H161
				C159.8,92.6,159.6,92.4,159.6,91.2"/>
			<path fill="#009A4B" d="M201.6,92.6h-0.8c-1.1,0-1.4-0.2-1.4-1.4V78.4c0-3.6-1.4-6.1-5.6-6.1s-6.2,2.6-6.5,6.3v12.6
				c0,1.2-0.2,1.4-1.4,1.4h-0.7c-1.1,0-1.4-0.2-1.4-1.4V70.8c0-1,0-1.2,0.7-1.2c2,0,2.8,0.8,2.8,2.8v0.3c1.3-1.9,3.7-3.5,7.4-3.5
				c5.8,0,8.2,3.5,8.2,8.9v13C203,92.3,202.7,92.5,201.6,92.6"/>
			<path fill="#009A4B" d="M212.2,82.7c0.4,5.4,3.4,7,8.2,7c3,0,6-0.7,8.8-1.9c0.7-0.3,1-0.1,1,0.6c0,1.3-0.8,2.4-2,2.9
				c-2.6,1.2-5.4,1.7-8.3,1.7c-7,0-11.5-3.1-11.5-11.3c0-8,4-12.4,11.1-12.4c7.4,0,10.7,4.6,10.7,11.4c0,1.1-0.3,2-1.9,2L212.2,82.7
				z M212.2,79.8h14.6c-0.1-4.7-2.4-7.7-7.3-7.7C215,72.2,212.6,75.1,212.2,79.8"/>
			<path fill="#009A4B" d="M239.4,82v9.2c0,1.2-0.2,1.4-1.4,1.4h-0.7c-1.1,0-1.4-0.2-1.4-1.4V70.8c0-1,0-1.2,0.7-1.2
				c2,0,2.8,0.8,2.8,2.8v1.6c1.3-3.6,3.5-4.9,6.4-4.9s3.6,1.1,3.6,2.7c0,0.8-0.1,1-0.8,0.8c-0.9-0.3-1.8-0.4-2.7-0.4
				C241.5,72.1,239.5,75.8,239.4,82"/>
			<path fill="#009A4B" d="M253.3,102.3c-1.1-0.4-1.9-1.4-1.9-2.6c0-0.9,0.4-1,1.2-0.6c2.7,1.3,5.7,2,8.7,1.9c4.2,0,8.9-1.3,8.9-9.8
				l0-2.3c-1.6,2.4-4.4,4.1-8.6,4.1c-7,0-10.9-4.7-10.9-11.7s4-12,10.9-12c4.2,0,7,1.7,8.6,4.3v-0.9c0-2.1,0.8-3,2.8-3
				c0.6,0,0.7,0.3,0.7,1.4v20.6c0,10.1-5.9,12.4-12.1,12.4C258.7,104.1,255.9,103.5,253.3,102.3 M262.4,72.4c-5.3,0-7.9,3.8-7.9,8.7
				s2.6,8.6,8,8.6c5.7,0,8-4.2,8-8.5S268,72.4,262.4,72.4"/>
			<path fill="#009A4B" d="M283.6,58.1c0.3-0.7,1.1-1.1,1.8-0.9h1.8c0.8,0,0.9,0.5,0.3,1.1l-4.8,5.1c-0.3,0.4-0.8,0.5-1.3,0.5h-1.6
				c-0.4,0-0.5-0.2-0.3-0.6L283.6,58.1z M284.2,72.3v18.8c0,1.2-0.2,1.4-1.3,1.4h-0.7c-1.1,0-1.4-0.2-1.4-1.4V70.8
				c0-1,0.1-1.2,0.7-1.2C283.4,69.6,284.2,70.4,284.2,72.3"/>
			<path fill="#009A4B" d="M298.2,80.1c2.4,0,4.8,0.2,7.2,0.4v-3c0-4.9-3.8-5.3-6.7-5.3c-2.1,0-4.2,0.3-6.3,0.9
				c-1.3,0.3-1.4,0.2-1.4-0.4c-0.1-1.1,0.6-2.2,1.7-2.5c2.1-0.6,4.3-0.9,6.6-0.9c3.4,0,9.6,0.8,9.6,7.8v14.5c0,0.9,0,1.2-0.7,1.2
				c-1.8,0-2.7-0.7-2.8-2.3c-1.3,1-3.8,2.4-8.4,2.4c-5.2,0-7.6-2.2-7.6-6.7S292.3,80,298.2,80.1 M305.4,83.2
				c-2.2-0.3-4.3-0.4-6.5-0.4c-3.8,0-6.1,0.4-6.1,3.4s1.9,3.8,5,3.8c4.1,0,6.2-1.2,7.6-2.3L305.4,83.2z"/>
			<path fill="#009A4B" d="M161,137.2c-1.1,0-1.4-0.2-1.4-1.3v-32.2c0-1.4,0.3-1.6,1.6-1.6h9.7c6.9,0,9.7,3.9,9.7,8.7
				c0,4.5-2,7-5.2,8c5.1,0.8,7.6,3.6,7.6,8.8c0,5.8-3.5,9.7-11.2,9.7L161,137.2z M163.1,105.1v12.3h7.6c4.1,0,6.3-2.3,6.3-6.2
				c0-3.4-1.7-6.1-6.9-6.1H163.1z M163.1,120.4v13.8h8.1c5.9,0,8.1-2.8,8.1-6.9c0-4.6-2.8-6.9-8.1-6.9L163.1,120.4z"/>
			<path fill="#009A4B" d="M199.3,113.9c7.6,0,11.9,4.7,11.9,11.9c0,7.2-4.3,11.8-11.9,11.8s-11.9-4.6-11.9-11.8
				S191.6,113.9,199.3,113.9 M199.3,134.5c5.3,0,8.2-3.5,8.2-8.7s-2.9-8.8-8.2-8.8s-8.3,3.7-8.3,8.8S193.9,134.5,199.3,134.5"/>
			<path fill="#009A4B" d="M217.8,146.9c-1.1-0.4-1.9-1.4-1.9-2.6c0-0.9,0.4-1,1.2-0.6c2.7,1.3,5.7,2,8.7,1.9c4.2,0,8.9-1.3,8.9-9.8
				l0.1-2.3c-1.6,2.4-4.4,4.1-8.6,4.1c-7,0-10.9-4.7-10.9-11.7s4-12,10.9-12c4.2,0,7,1.7,8.6,4.3v-0.9c0-2.1,0.8-3,2.8-3
				c0.6,0,0.7,0.3,0.7,1.4v20.6c0,10.1-5.9,12.4-12.1,12.4C223.3,148.7,220.4,148.1,217.8,146.9 M226.9,117c-5.3,0-7.9,3.8-7.9,8.7
				s2.6,8.6,7.9,8.6c5.7,0,8-4.2,8-8.5C234.9,121.4,232.5,117,226.9,117"/>
			<path fill="#009A4B" d="M255.8,113.9c7.5,0,11.9,4.7,11.9,11.9c0,7.2-4.3,11.8-11.9,11.8c-7.7,0-11.9-4.6-11.9-11.8
				S248.1,113.9,255.8,113.9 M255.8,134.5c5.3,0,8.2-3.5,8.2-8.7s-2.9-8.8-8.2-8.8s-8.3,3.7-8.3,8.8S250.4,134.5,255.8,134.5"/>
			<path fill="#009A4B" d="M277.9,108.8v5.5h6c0.9,0,1.1,0.2,1.1,1.1v0.7c0,1.1-0.1,1.2-1.1,1.2h-6v12.9c0,3.4,1.8,4.2,3.3,4.2
				c1.2,0,2.4-0.3,3.4-0.9c0.5-0.2,0.8-0.1,0.8,0.8c0,0.5-0.1,1-0.4,1.4c-0.7,1.1-2.3,1.8-4.8,1.8c-3.9,0-5.9-2.4-5.9-7.3v-13h-2.8
				c-1,0-1.1-0.1-1.1-1.2v-0.7c0-1,0.1-1.1,1.1-1.1h2.8v-1.6c0-3.6,1.1-5.1,2.8-5.1C277.9,107.5,277.9,107.7,277.9,108.8"/>
			<path fill="#009A4B" d="M296.8,124.7c2.4,0,4.8,0.2,7.2,0.4v-3c0-4.9-3.8-5.3-6.7-5.3c-2.1,0-4.2,0.3-6.3,0.9
				c-1.3,0.3-1.4,0.2-1.4-0.4c-0.1-1.1,0.6-2.2,1.7-2.5c2.1-0.6,4.3-0.9,6.6-0.9c3.4,0,9.6,0.8,9.6,7.8v14.5c0,0.9,0,1.2-0.7,1.2
				c-1.8,0-2.7-0.7-2.8-2.3c-1.3,1-3.8,2.4-8.4,2.4c-5.2,0-7.6-2.2-7.6-6.6S290.9,124.7,296.8,124.7 M304,127.9
				c-2.2-0.3-4.3-0.4-6.5-0.4c-3.8,0-6.1,0.4-6.1,3.4s1.9,3.8,5,3.8c4.1,0,6.2-1.2,7.6-2.3L304,127.9z M299.3,102.7
				c0.3-0.7,1.1-1.1,1.8-0.9h1.8c0.7,0,0.9,0.4,0.3,1.1l-4.8,5.1c-0.3,0.4-0.8,0.6-1.3,0.5h-1.6c-0.4,0-0.5-0.2-0.3-0.6L299.3,102.7
				z"/>
			<path fill="#9EC53B" d="M35.5,114.8c-0.2,0-0.3-0.1-0.5-0.2C16,99,13.3,71,29,52c1.9-2.3,4.1-4.5,6.5-6.4c0.3-0.2,0.8-0.1,1,0.2
				c0.2,0.3,0.2,0.7-0.1,1c-18.5,14.9-21.4,42-6.5,60.5c1.8,2.2,3.8,4.3,6.1,6.1c0.3,0.3,0.3,0.7,0.1,1
				C35.9,114.6,35.7,114.7,35.5,114.8"/>
			<g>
				<g>
					<defs>
						<rect id="SVGID_5_" x="29.1" y="34.6" width="88" height="88"/>
					</defs>
					<clipPath id="SVGID_6_">
						<use xlink:href="#SVGID_5_"  overflow="visible"/>
					</clipPath>
					<g clip-path="url(#SVGID_6_)">
						<path fill="#9EC53B" d="M73.2,122.6c-16.9,0-32.3-9.6-39.7-24.8c-1.4-2.8-2.4-5.8-3.2-8.9c-0.7-2.7-1-5.5-1.2-8.3
							c0-0.4,0.3-0.8,0.7-0.8s0.8,0.3,0.8,0.7c1,23.5,20.9,41.6,44.4,40.6c23.5-1,41.6-20.9,40.6-44.4c-1-22-18.6-39.7-40.7-40.6
							c-0.4,0-0.7-0.4-0.7-0.8c0,0,0,0,0,0c0-0.4,0.4-0.7,0.8-0.7c24.3,0.5,43.6,20.6,43.1,44.9C117.6,103.8,97.5,123.1,73.2,122.6"
							/>
					</g>
				</g>
			</g>
			<g>
				<g>
					<defs>
						<rect id="SVGID_7_" x="32.2" y="24.2" width="76.1" height="88"/>
					</defs>
					<clipPath id="SVGID_8_">
						<use xlink:href="#SVGID_7_"  overflow="visible"/>
					</clipPath>
					<g clip-path="url(#SVGID_8_)">
						<path fill="#009A4B" d="M76.2,112.3c-24.3,0-44-19.7-44-44s19.7-44,44-44c12,0,23.5,4.9,31.8,13.6c0.3,0.3,0.3,0.8,0,1.1
							c-0.3,0.3-0.8,0.3-1.1,0c-1.9-2-3.9-3.7-6.1-5.3c-19.1-13.6-45.7-9.1-59.3,10s-9.1,45.7,10,59.3c15.5,11,36.4,10.4,51.2-1.4
							c0.3-0.3,0.8-0.3,1.1,0s0.3,0.8,0,1.1c0,0-0.1,0.1-0.1,0.1C95.9,108.9,86.2,112.3,76.2,112.3"/>
					</g>
				</g>
			</g>
			<path fill="#009A4B" d="M19.3,63.3c0-10.9,8.9-19.8,19.8-19.8s19.8,8.9,19.8,19.8S50,83.2,39.1,83.2S19.3,74.3,19.3,63.3
				L19.3,63.3"/>
			<path fill="#009A4B" d="M64.1,53.1c0-10.9,8.9-19.8,19.8-19.8s19.8,8.9,19.8,19.8s-8.9,19.8-19.8,19.8S64.1,64,64.1,53.1
				L64.1,53.1"/>
			<path fill="#9EC53B" d="M79.9,109C79,100.7,85,93.3,93.3,92.4s15.7,5.1,16.6,13.4c0.9,8.3-5.1,15.7-13.4,16.6c0,0,0,0,0,0
				C88.2,123.3,80.8,117.3,79.9,109C79.9,109,79.9,109,79.9,109"/>
			<path fill="#9EC53B" d="M66.5,25.7c0-8.3,6.7-15.1,15.1-15.1s15.1,6.7,15.1,15.1s-6.7,15.1-15.1,15.1c0,0,0,0,0,0
				C73.2,40.8,66.5,34,66.5,25.7"/>
			<path fill="#9EC53B" d="M29.9,126.2c0-8.3,6.8-15.1,15.1-15.1s15.1,6.8,15.1,15.1c0,8.3-6.7,15.1-15,15.1
				C36.7,141.3,29.9,134.5,29.9,126.2C29.9,126.2,29.9,126.2,29.9,126.2"/>
			<path fill="#2376B4" d="M59.1,94.2c0-2.8,2.3-5.2,5.2-5.2c2.8,0,5.1,2.3,5.1,5.2c0,2.8-2.3,5.2-5.2,5.2l0,0
				C61.4,99.4,59.1,97.1,59.1,94.2L59.1,94.2"/>
			<path fill="#2EA2DA" d="M126.8,39.6c-0.4,0-0.7-0.3-0.8-0.7c-2.6-20.6-19.7-36.4-40.4-37.4c-0.4,0-0.7-0.4-0.7-0.8c0,0,0,0,0,0
				c0-0.4,0.3-0.8,0.7-0.8c0,0,0,0,0,0c21.5,1.1,39.1,17.4,41.9,38.7c0.1,0.4-0.2,0.8-0.6,0.8C126.9,39.6,126.9,39.6,126.8,39.6
				L126.8,39.6"/>
			<path fill="#2EA2DA" d="M99.4,93.6c0-9.5,7.7-17.2,17.2-17.2c9.5,0,17.2,7.7,17.2,17.2s-7.7,17.2-17.2,17.2c0,0,0,0,0,0
				C107.1,110.8,99.4,103.1,99.4,93.6C99.4,93.6,99.4,93.6,99.4,93.6"/>
			<path fill="#2EA2DA" d="M113,32.6c0-6.3,5.1-11.5,11.4-11.5c6.3,0,11.5,5.1,11.5,11.4S130.8,44,124.5,44c0,0,0,0,0,0
				C118.1,44,113,38.9,113,32.6"/>
			<path fill="#2EA2DA" d="M37.4,25.7c0-2.8,2.3-5.2,5.2-5.2c2.8,0,5.1,2.3,5.1,5.2s-2.3,5.1-5.1,5.1S37.4,28.6,37.4,25.7L37.4,25.7
				"/>
			<path fill="#009A4B" d="M87.2,147.5c-1.9-0.8-2.8-2.9-2-4.7c0.8-1.9,2.9-2.8,4.7-2c1.9,0.8,2.8,2.9,2,4.7
				C91.2,147.4,89.1,148.2,87.2,147.5C87.2,147.5,87.2,147.5,87.2,147.5"/>
			<path fill="#2076B3" d="M68.6,120.3c0-6.3,5.1-11.5,11.5-11.5c6.3,0,11.5,5.1,11.5,11.5c0,6.3-5.1,11.5-11.5,11.5c0,0,0,0,0,0
				C73.7,131.7,68.5,126.6,68.6,120.3"/>
			<path fill="#2076B3" d="M9.8,99.5c0-6.3,5.1-11.5,11.5-11.5c6.3,0,11.5,5.1,11.5,11.5s-5.1,11.5-11.5,11.5c0,0,0,0,0,0
				C14.9,110.9,9.8,105.8,9.8,99.5"/>
			<path fill="#009A4B" d="M2.3,41.1c-1.9-0.8-2.8-2.9-2-4.8c0.8-1.9,2.9-2.8,4.8-2c1.9,0.8,2.8,2.9,2,4.8
				C6.3,40.9,4.2,41.8,2.3,41.1C2.3,41.1,2.3,41.1,2.3,41.1"/>
		</g>
	</g>
</g>
</svg>
