<svg xmlns="http://www.w3.org/2000/svg" xmlns:xlink="http://www.w3.org/1999/xlink" viewBox="0 0 654.51 522.04"><defs><style>.cls-1{fill:none;}.cls-2{isolation:isolate;}.cls-3{fill:#6e6f71;}.cls-4{fill:#009a4b;}.cls-5{fill:#231f20;}.cls-6{fill:#9ec53b;}.cls-7{mix-blend-mode:multiply;}.cls-8{clip-path:url(#clip-path);}.cls-9{clip-path:url(#clip-path-2);}.cls-10{fill:#2376b4;}.cls-11{fill:#2ea2da;}.cls-12{fill:#2076b3;}</style><clipPath id="clip-path"><rect class="cls-1" x="215.02" y="85.4" width="217.4" height="217.34"/></clipPath><clipPath id="clip-path-2"><rect class="cls-1" x="222.52" y="59.72" width="188.02" height="217.51"/></clipPath></defs><title>Mesa de trabajo 48</title><g class="cls-2"><g id="Capa_1" data-name="Capa 1"><path class="cls-3" d="M311,521.73a1.59,1.59,0,0,1-1.59-1.59V387.51a1.59,1.59,0,0,1,3.18,0V520.14A1.59,1.59,0,0,1,311,521.73Z"/><path class="cls-4" d="M370.9,400H355.35v63.23c0,2.25-.51,2.76-2.76,2.76h-1.95c-2.25,0-2.77-.51-2.77-2.76V400H327.82c-2.25,0-2.76-.31-2.76-2.46V396c0-2.05.51-2.46,2.76-2.46H375.3c1.84,0,2.35.1,2.35,1.44,0,2.45-2,5-6.75,5"/><path class="cls-4" d="M421.43,428.75h18.82c2.77,0,3.07.41,3.07,3.38v26.8c0,2.36-.41,3-2.26,3.79a56.14,56.14,0,0,1-23.32,4.6c-26,0-37-15.34-37-37.14,0-22.61,10.75-37.85,37.45-37.85,11.05,0,17.7,2.66,21.9,5.52a7,7,0,0,1,2.76,5.32c0,1.44-.31,2.15-1.54,1.64a43.39,43.39,0,0,0-22.81-5.93c-22.11,0-29.78,12.48-29.78,31.3,0,17.7,7.17,30.49,29.06,30.49A42.57,42.57,0,0,0,436,457.09V435.2H424c-3.37,0-5.21-2.15-5.21-4.91,0-1.44.61-1.54,2.66-1.54"/><path class="cls-4" d="M466.42,463.23c0,2.25-.4,2.76-2.66,2.76h-1.94c-2.35,0-2.76-.51-2.76-2.76V396.72c0-2.76.41-3.17,3.07-3.17h1.23c2.66,0,3.06.41,3.06,3.17Z"/><path class="cls-5" d="M345.75,493.9h6.69c1,0,1.09.15,1.09,1.2v9.53c0,.83-.15,1.05-.79,1.34a20,20,0,0,1-8.3,1.63c-9.23,0-13.16-5.45-13.16-13.19,0-8,3.82-13.45,13.31-13.45,3.93,0,6.29,1,7.78,2a2.5,2.5,0,0,1,1,1.89c0,.51-.11.76-.55.59a15.26,15.26,0,0,0-8.1-2.12c-7.85,0-10.58,4.44-10.58,11.13,0,6.29,2.54,10.83,10.32,10.83a15,15,0,0,0,6.47-1.27v-7.78h-4.25a1.69,1.69,0,0,1-1.86-1.74c0-.51.23-.55.95-.55"/><path class="cls-5" d="M360.63,499.39v6.72c0,.88-.15,1-1,1h-.52c-.82,0-1-.14-1-1v-14.9c0-.69,0-.91.51-.91,1.45,0,2,.62,2,2v1.16c.9-2.66,2.58-3.6,4.68-3.6s2.66.8,2.66,2c0,.59-.07.73-.59.62a7.79,7.79,0,0,0-2-.29c-3.17,0-4.69,2.69-4.76,7.2"/><path class="cls-5" d="M382.15,505.24v-.47a6.56,6.56,0,0,1-5.6,2.58c-4.18,0-5.86-2.44-5.86-6.36v-9.78c0-.69,0-.91.52-.91,1.45,0,2,.62,2,2V501c0,2.33,1.09,4,3.93,4,3.2,0,4.69-1.85,5-4.36v-9.42c0-.69,0-.91.51-.91,1.45,0,2.07.62,2.07,2v14c0,.69,0,.91-.51.91-1.46,0-2.07-.62-2.07-2"/><path class="cls-5" d="M392.26,504.48v10c0,.87-.15,1-1,1h-.51c-.83,0-1-.14-1-1V491.21c0-.69,0-.91.51-.91,1.46,0,2,.62,2,2v.87a7,7,0,0,1,6.25-3.13c5.13,0,8,3.57,8,8.72s-2.8,8.62-8,8.62c-3.05,0-5.06-1.2-6.22-2.94m5.67.58c3.93,0,5.82-2.69,5.82-6.26s-1.89-6.39-5.78-6.39c-4.14,0-5.86,3.16-5.86,6.39s1.64,6.26,5.82,6.26"/><path class="cls-5" d="M418.22,490.05c5.53,0,8.68,3.45,8.68,8.72s-3.15,8.62-8.68,8.62-8.72-3.35-8.72-8.62,3.08-8.72,8.72-8.72m0,15.08c3.88,0,6-2.58,6-6.36s-2.12-6.47-6-6.47-6.07,2.69-6.07,6.47,2.15,6.36,6.07,6.36"/><path class="cls-4" d="M431.08,506.15V482.63c0-1.05.19-1.24,1.21-1.24h12.43c.61,0,.8,0,.8.47,0,.95-.72,1.82-2.47,1.82H433.7v8.91h8.91c.62,0,.8,0,.8.47,0,.95-.73,1.82-2.47,1.82H433.7v10h10.66c.79,0,.94.14.94.87v.55c0,.73-.15.87-.94.87H432.14c-.87,0-1.06-.14-1.06-1"/><path class="cls-4" d="M461.85,507.13h-.55c-.83,0-1-.14-1-1v-9.35c0-2.61-1-4.47-4.11-4.47s-4.5,1.93-4.76,4.62v9.2c0,.87-.15,1-1,1h-.5c-.84,0-1-.14-1-1V491.21c0-.69,0-.91.5-.91,1.46,0,2,.62,2,2v.26a6.27,6.27,0,0,1,5.46-2.55c4.25,0,6,2.55,6,6.54v9.53c0,.87-.18,1-1,1"/><path class="cls-4" d="M469.59,499.9c.29,3.93,2.51,5.16,6,5.16a15.27,15.27,0,0,0,6.43-1.42c.51-.21.76-.07.76.4a2.23,2.23,0,0,1-1.45,2.11,14.26,14.26,0,0,1-6.07,1.24c-5.13,0-8.4-2.29-8.4-8.29s2.91-9.05,8.15-9.05,7.85,3.38,7.85,8.36c0,.8-.22,1.49-1.39,1.49Zm0-2.07h10.72c-.1-3.42-1.74-5.6-5.34-5.6-3.34,0-5.05,2.14-5.38,5.6"/><path class="cls-4" d="M489.48,499.39v6.72c0,.88-.15,1-1,1H488c-.83,0-1-.14-1-1v-14.9c0-.69,0-.91.51-.91,1.46,0,2,.62,2,2v1.16c.9-2.66,2.58-3.6,4.69-3.6s2.65.8,2.65,2c0,.59-.07.73-.58.62a7.86,7.86,0,0,0-2-.29c-3.16,0-4.69,2.69-4.76,7.2"/><path class="cls-4" d="M499.66,514.22a2,2,0,0,1-1.38-1.89c0-.65.29-.76.87-.47a14.31,14.31,0,0,0,6.4,1.42c3.05,0,6.5-1,6.5-7.21l0-1.7c-1.16,1.78-3.19,3-6.29,3-5.09,0-8-3.45-8-8.58s3-8.75,8-8.75a7,7,0,0,1,6.28,3.12v-.65c0-1.53.58-2.22,2-2.22.48,0,.51.22.51,1V506.4c0,7.38-4.33,9.06-8.83,9.06a12.86,12.86,0,0,1-6.11-1.24m6.65-21.85c-3.89,0-5.78,2.8-5.78,6.4s1.89,6.29,5.82,6.29c4.18,0,5.85-3.09,5.85-6.26s-1.75-6.43-5.89-6.43"/><path class="cls-4" d="M521.84,481.91a1.25,1.25,0,0,1,1.34-.7h1.35c.55,0,.69.33.22.8l-3.52,3.71a1.18,1.18,0,0,1-1,.36h-1.16c-.29,0-.4-.14-.18-.43Zm.44,10.43v13.77c0,.88-.15,1-1,1h-.55c-.82,0-1-.14-1-1v-14.9c0-.69,0-.91.51-.91,1.45,0,2,.62,2,2"/><path class="cls-4" d="M532.53,498a45.14,45.14,0,0,1,5.27.33v-2.18c0-3.56-2.8-3.89-4.91-3.89a17.85,17.85,0,0,0-4.58.65c-.91.26-1.06.15-1.06-.32a1.69,1.69,0,0,1,1.28-1.82,17,17,0,0,1,4.79-.69c2.48,0,7.06.58,7.06,5.7v10.62c0,.69,0,.91-.51.91-1.35,0-2-.51-2.07-1.67a9.92,9.92,0,0,1-6.19,1.74c-3.77,0-5.59-1.63-5.59-4.87s2.18-4.51,6.51-4.51m5.27,2.33A31,31,0,0,0,533,500c-2.76,0-4.47.32-4.47,2.47s1.39,2.8,3.68,2.8a8.28,8.28,0,0,0,5.56-1.68Z"/><path class="cls-4" d="M547.21,507.13c-.83,0-1-.14-1-.94V482.6c0-1,.18-1.2,1.16-1.2h7.09c5,0,7.13,2.87,7.13,6.36,0,3.31-1.5,5.08-3.78,5.82,3.73.61,5.59,2.65,5.59,6.46,0,4.22-2.54,7.09-8.21,7.09Zm1.53-23.52v9h5.52c3,0,4.59-1.67,4.59-4.55,0-2.51-1.25-4.47-5-4.47Zm0,11.24v10.06h6c4.29,0,6-2,6-5.05,0-3.38-2.07-5-6-5Z"/><path class="cls-4" d="M575.25,490.05c5.52,0,8.68,3.45,8.68,8.72s-3.16,8.62-8.68,8.62-8.73-3.35-8.73-8.62,3.09-8.72,8.73-8.72m0,15.08c3.89,0,6-2.58,6-6.36s-2.1-6.47-6-6.47-6.08,2.69-6.08,6.47,2.15,6.36,6.08,6.36"/><path class="cls-4" d="M588.81,514.22a2,2,0,0,1-1.39-1.89c0-.65.3-.76.88-.47a14.27,14.27,0,0,0,6.4,1.42c3,0,6.5-1,6.5-7.21l0-1.7c-1.16,1.78-3.2,3-6.29,3-5.09,0-8-3.45-8-8.58s2.94-8.75,8-8.75a7,7,0,0,1,6.28,3.12v-.65c0-1.53.59-2.22,2-2.22.47,0,.51.22.51,1V506.4c0,7.38-4.32,9.06-8.83,9.06a12.86,12.86,0,0,1-6.11-1.24m6.65-21.85c-3.89,0-5.77,2.8-5.77,6.4s1.88,6.29,5.81,6.29c4.17,0,5.85-3.09,5.85-6.26s-1.74-6.43-5.89-6.43"/><path class="cls-4" d="M616.62,490.05c5.53,0,8.68,3.45,8.68,8.72s-3.15,8.62-8.68,8.62-8.72-3.35-8.72-8.62,3.08-8.72,8.72-8.72m0,15.08c3.88,0,6-2.58,6-6.36s-2.11-6.47-6-6.47-6.07,2.69-6.07,6.47,2.15,6.36,6.07,6.36"/><path class="cls-4" d="M632.8,486.3v4h4.39c.7,0,.81.11.81.84v.54c0,.77-.11.84-.81.84H632.8V502c0,2.47,1.31,3.09,2.4,3.09a5.17,5.17,0,0,0,2.51-.65c.4-.15.58-.08.58.58A1.9,1.9,0,0,1,638,506c-.55.84-1.67,1.31-3.52,1.31-2.88,0-4.3-1.74-4.3-5.34v-9.49h-2c-.69,0-.8-.07-.8-.84v-.54c0-.73.11-.84.8-.84h2v-1.2c0-2.61.84-3.71,2-3.71.51,0,.55.18.55.91"/><path class="cls-4" d="M646.65,498a45,45,0,0,1,5.27.33v-2.18c0-3.56-2.8-3.89-4.91-3.89a17.77,17.77,0,0,0-4.57.65c-.92.26-1.06.15-1.06-.32a1.68,1.68,0,0,1,1.27-1.82,17,17,0,0,1,4.8-.69c2.47,0,7.06.58,7.06,5.71v10.61c0,.69,0,.91-.52.91-1.34,0-2-.51-2.07-1.67a9.89,9.89,0,0,1-6.18,1.74c-3.78,0-5.59-1.63-5.59-4.87s2.18-4.51,6.5-4.51m5.27,2.33a30.8,30.8,0,0,0-4.76-.29c-2.77,0-4.47.32-4.47,2.47s1.38,2.8,3.67,2.8a8.34,8.34,0,0,0,5.56-1.67Zm-3.45-18.39a1.24,1.24,0,0,1,1.34-.7h1.35c.54,0,.69.33.21.8l-3.52,3.71a1.15,1.15,0,0,1-1,.37H645.7c-.29,0-.4-.15-.18-.44Z"/><path class="cls-5" d="M153.53,403.29h9.14c1.34,0,1.49.2,1.49,1.64v13c0,1.14-.2,1.44-1.09,1.84A27.32,27.32,0,0,1,151.74,422c-12.61,0-18-7.45-18-18,0-11,5.22-18.37,18.18-18.37,5.37,0,8.59,1.29,10.63,2.68a3.39,3.39,0,0,1,1.34,2.58c0,.7-.15,1-.74.8a21.15,21.15,0,0,0-11.08-2.88c-10.73,0-14.45,6.06-14.45,15.19,0,8.6,3.47,14.8,14.1,14.8a20.6,20.6,0,0,0,8.84-1.73V406.42h-5.81a2.31,2.31,0,0,1-2.53-2.39c0-.69.3-.74,1.29-.74"/><path class="cls-5" d="M173.85,410.79V420c0,1.19-.2,1.39-1.39,1.39h-.69c-1.15,0-1.39-.2-1.39-1.39V399.62c0-.95,0-1.25.69-1.25,2,0,2.78.85,2.78,2.78v1.59c1.24-3.62,3.53-4.91,6.41-4.91s3.62,1.09,3.62,2.68c0,.79-.1,1-.79.84a10.61,10.61,0,0,0-2.73-.4c-4.32,0-6.41,3.68-6.51,9.84"/><path class="cls-5" d="M203.26,418.79v-.65c-1.39,2-3.92,3.53-7.65,3.53-5.71,0-8-3.33-8-8.7V399.61c0-.94,0-1.24.7-1.24,2,0,2.78.85,2.78,2.78v11.77c0,3.18,1.49,5.52,5.36,5.52,4.37,0,6.41-2.54,6.81-6V399.61c0-.94,0-1.24.69-1.24,2,0,2.83.85,2.83,2.78v19.17c0,.95-.05,1.25-.69,1.25-2,0-2.83-.85-2.83-2.78"/><path class="cls-5" d="M217.07,417.74V431.4c0,1.19-.2,1.39-1.39,1.39H215c-1.14,0-1.39-.2-1.39-1.39V399.61c0-.94,0-1.24.7-1.24,2,0,2.78.85,2.78,2.78v1.19c1.64-2.53,4.32-4.27,8.54-4.27,7,0,10.88,4.87,10.88,11.92s-3.82,11.77-10.92,11.77c-4.18,0-6.91-1.64-8.5-4m7.75.8c5.36,0,8-3.68,8-8.55s-2.59-8.74-7.9-8.74c-5.66,0-8,4.32-8,8.74s2.24,8.55,7.95,8.55"/><path class="cls-5" d="M252.54,398c7.55,0,11.87,4.72,11.87,11.93s-4.32,11.77-11.87,11.77c-7.7,0-11.92-4.57-11.92-11.77S244.84,398,252.54,398m0,20.62c5.31,0,8.19-3.53,8.19-8.69s-2.88-8.85-8.19-8.85-8.3,3.68-8.3,8.85,2.93,8.69,8.3,8.69"/><path class="cls-4" d="M135.85,464.68V432.54c0-1.44.25-1.68,1.64-1.68h17c.85,0,1.1,0,1.1.64,0,1.29-1,2.48-3.38,2.48H139.42v12.17h12.17c.85,0,1.1.05,1.1.65,0,1.29-1,2.48-3.38,2.48h-9.89v13.61H154c1.09,0,1.29.2,1.29,1.19v.75c0,1-.2,1.19-1.29,1.19H137.29c-1.19,0-1.44-.2-1.44-1.34"/><path class="cls-4" d="M177.87,466h-.74c-1.15,0-1.39-.2-1.39-1.39V451.86c0-3.57-1.44-6.1-5.61-6.1s-6.16,2.63-6.51,6.3v12.57c0,1.19-.2,1.39-1.39,1.39h-.7c-1.14,0-1.39-.2-1.39-1.39V444.27c0-.95,0-1.25.7-1.25,2,0,2.78.85,2.78,2.78v.35c1.34-1.94,3.72-3.47,7.45-3.47,5.81,0,8.19,3.47,8.19,8.94v13c0,1.19-.25,1.39-1.39,1.39"/><path class="cls-4" d="M188.46,456.14c.39,5.36,3.42,7.05,8.19,7.05a20.8,20.8,0,0,0,8.79-1.94c.7-.3,1.05-.1,1.05.55a3.08,3.08,0,0,1-2,2.88,19.67,19.67,0,0,1-8.3,1.69c-7,0-11.47-3.13-11.47-11.33,0-8,4-12.36,11.13-12.36,7.35,0,10.73,4.61,10.73,11.42,0,1.09-.3,2-1.89,2Zm0-2.84h14.65c-.15-4.66-2.38-7.64-7.3-7.64-4.57,0-6.91,2.93-7.35,7.64"/><path class="cls-4" d="M215.63,455.44v9.19c0,1.19-.2,1.39-1.39,1.39h-.7c-1.14,0-1.39-.2-1.39-1.39V444.27c0-.95,0-1.25.7-1.25,2,0,2.78.85,2.78,2.79v1.58c1.24-3.62,3.53-4.91,6.41-4.91s3.62,1.09,3.62,2.68c0,.79-.1,1-.79.84a11,11,0,0,0-2.73-.39c-4.32,0-6.41,3.67-6.51,9.83"/><path class="cls-4" d="M229.54,475.7a2.74,2.74,0,0,1-1.89-2.58c0-.89.4-1,1.19-.64a19.47,19.47,0,0,0,8.74,1.93c4.18,0,8.9-1.34,8.9-9.83l0-2.33c-1.59,2.43-4.37,4.12-8.59,4.12-7,0-10.93-4.72-10.93-11.72s4-12,10.88-12c4.17,0,7,1.73,8.6,4.27v-.9c0-2.08.79-3,2.78-3,.64,0,.69.3.69,1.39V465c0,10.08-5.91,12.36-12.07,12.36-4.37,0-6.95-.94-8.34-1.69m9.09-29.85c-5.32,0-7.9,3.83-7.9,8.75s2.58,8.59,8,8.59c5.71,0,8-4.22,8-8.54s-2.38-8.8-8-8.8"/><path class="cls-4" d="M259.84,431.55a1.71,1.71,0,0,1,1.84-.94h1.84c.74,0,.94.44.29,1.09L259,436.77a1.6,1.6,0,0,1-1.35.49h-1.58c-.4,0-.55-.2-.25-.59Zm.6,14.26v18.82c0,1.19-.2,1.39-1.34,1.39h-.75c-1.14,0-1.39-.2-1.39-1.39V444.27c0-.95.05-1.25.69-1.25,2,0,2.79.85,2.79,2.79"/><path class="cls-4" d="M274.44,453.5a62,62,0,0,1,7.21.45v-3c0-4.87-3.83-5.31-6.71-5.31a23.87,23.87,0,0,0-6.26.89c-1.24.35-1.44.2-1.44-.45a2.3,2.3,0,0,1,1.74-2.48,23.21,23.21,0,0,1,6.56-.94c3.37,0,9.63.79,9.63,7.79V465c0,.94-.05,1.24-.69,1.24-1.84,0-2.69-.7-2.83-2.29-1.35,1-3.83,2.39-8.45,2.39-5.16,0-7.65-2.24-7.65-6.66s3-6.16,8.89-6.16m7.21,3.18a42.78,42.78,0,0,0-6.51-.39c-3.78,0-6.11.44-6.11,3.37s1.89,3.83,5,3.83c4.12,0,6.16-1.2,7.6-2.29Z"/><path class="cls-4" d="M137.24,510.67c-1.14,0-1.39-.2-1.39-1.29V477.15c0-1.4.25-1.64,1.59-1.64h9.68c6.91,0,9.74,3.92,9.74,8.69,0,4.52-2,6.95-5.17,7.95,5.12.84,7.65,3.62,7.65,8.84,0,5.76-3.48,9.68-11.23,9.68Zm2.08-32.13v12.31h7.55c4.13,0,6.26-2.28,6.26-6.2,0-3.43-1.69-6.11-6.85-6.11Zm0,15.34v13.76h8.15c5.86,0,8.15-2.78,8.15-6.9,0-4.62-2.84-6.86-8.15-6.86Z"/><path class="cls-4" d="M175.54,487.33c7.55,0,11.87,4.71,11.87,11.92S183.09,511,175.54,511s-11.92-4.57-11.92-11.77,4.22-11.92,11.92-11.92m0,20.61c5.31,0,8.19-3.53,8.19-8.69s-2.88-8.84-8.19-8.84-8.3,3.67-8.3,8.84,2.93,8.69,8.3,8.69"/><path class="cls-4" d="M194.07,520.36a2.76,2.76,0,0,1-1.89-2.59c0-.89.4-1,1.19-.64a19.48,19.48,0,0,0,8.75,1.93c4.17,0,8.89-1.34,8.89-9.83l0-2.33c-1.58,2.43-4.37,4.12-8.59,4.12-7,0-10.92-4.72-10.92-11.72s4-12,10.87-12c4.17,0,7,1.74,8.6,4.27v-.9c0-2.08.79-3,2.78-3,.64,0,.69.29.69,1.39v20.61c0,10.08-5.91,12.36-12.07,12.36a17.54,17.54,0,0,1-8.34-1.68m9.09-29.85c-5.32,0-7.9,3.82-7.9,8.74s2.58,8.59,8,8.59c5.71,0,8-4.22,8-8.54,0-4.47-2.38-8.79-8-8.79"/><path class="cls-4" d="M232.07,487.33c7.55,0,11.87,4.71,11.87,11.92S239.62,511,232.07,511s-11.92-4.57-11.92-11.77,4.22-11.92,11.92-11.92m0,20.61c5.31,0,8.2-3.53,8.2-8.69s-2.89-8.84-8.2-8.84-8.29,3.67-8.29,8.84,2.93,8.69,8.29,8.69"/><path class="cls-4" d="M254.18,482.21v5.47h6c.94,0,1.09.15,1.09,1.14v.74c0,1-.15,1.14-1.09,1.14h-6v12.92c0,3.38,1.79,4.22,3.27,4.22a7.07,7.07,0,0,0,3.43-.89c.55-.2.8-.1.8.79a2.57,2.57,0,0,1-.35,1.44c-.74,1.14-2.29,1.79-4.82,1.79-3.92,0-5.86-2.38-5.86-7.3v-13h-2.78c-.94,0-1.09-.1-1.09-1.14v-.74c0-1,.15-1.14,1.09-1.14h2.78V486c0-3.58,1.14-5.07,2.78-5.07.7,0,.75.25.75,1.24"/><path class="cls-4" d="M273.1,498.16a61.84,61.84,0,0,1,7.21.44v-3c0-4.87-3.83-5.31-6.71-5.31a23.87,23.87,0,0,0-6.26.89c-1.24.35-1.44.2-1.44-.45a2.3,2.3,0,0,1,1.74-2.48,23.58,23.58,0,0,1,6.56-.94c3.37,0,9.63.79,9.63,7.79v14.51c0,.94-.05,1.24-.69,1.24-1.84,0-2.69-.7-2.83-2.28-1.35,1-3.83,2.38-8.45,2.38-5.16,0-7.65-2.24-7.65-6.66s3-6.15,8.89-6.15m7.21,3.17a44.11,44.11,0,0,0-6.51-.39c-3.78,0-6.11.44-6.11,3.37s1.89,3.83,5,3.83c4.12,0,6.15-1.19,7.6-2.29Zm-4.72-25.13a1.69,1.69,0,0,1,1.83-.94h1.84c.75,0,.95.45.3,1.09l-4.82,5.07a1.55,1.55,0,0,1-1.34.49h-1.59c-.4,0-.54-.19-.25-.59Z"/><path class="cls-6" d="M230.67,283.47a1.83,1.83,0,0,1-1.16-.41c-25.62-20.62-40.18-51.77-40-85.47s15.17-64.61,41-84.87a1.85,1.85,0,0,1,2.28,2.92c-25,19.55-39.38,49.43-39.6,82s13.85,62.66,38.59,82.57a1.85,1.85,0,0,1,.28,2.6,1.82,1.82,0,0,1-1.44.69"/><g class="cls-7"><g class="cls-8"><path class="cls-6" d="M323.82,302.74a108.82,108.82,0,0,1-105.91-83.38A107.69,107.69,0,0,1,215,198.83a1.85,1.85,0,1,1,3.69-.16A105,105,0,1,0,328,89.09a1.85,1.85,0,1,1,.16-3.69,108.72,108.72,0,0,1-4.36,217.34"/></g></g><g class="cls-7"><g class="cls-9"><path class="cls-4" d="M331.32,277.23A108.73,108.73,0,1,1,410,93.5a1.85,1.85,0,1,1-2.68,2.55,104,104,0,0,0-15.14-13.12,105.67,105.67,0,0,0-19.69-11A105,105,0,1,0,397,250.48a1.85,1.85,0,1,1,2.31,2.89,108.71,108.71,0,0,1-67.94,23.86"/></g></g><path class="cls-4" d="M190.73,156.4a48.94,48.94,0,1,1,48.94,48.94,48.94,48.94,0,0,1-48.94-48.94"/><path class="cls-4" d="M301.39,131a48.94,48.94,0,1,1,48.94,48.93A48.94,48.94,0,0,1,301.39,131"/><path class="cls-6" d="M340.45,269.14a37.27,37.27,0,1,1,41,33.15,37.27,37.27,0,0,1-41-33.15"/><path class="cls-6" d="M307.31,63.42a37.27,37.27,0,1,1,37.27,37.26,37.27,37.27,0,0,1-37.27-37.26"/><path class="cls-6" d="M216.86,311.65a37.27,37.27,0,1,1,37.27,37.27,37.27,37.27,0,0,1-37.27-37.27"/><path class="cls-10" d="M289.12,232.7a12.72,12.72,0,1,1,12.72,12.72,12.71,12.71,0,0,1-12.72-12.72"/><path class="cls-11" d="M456.41,97.78a1.85,1.85,0,0,1-1.83-1.63c-6.06-50.5-49-90.25-99.93-92.45a1.86,1.86,0,0,1-1.77-1.93A1.89,1.89,0,0,1,354.81,0C407.51,2.28,452,43.43,458.25,95.71a1.85,1.85,0,0,1-1.61,2.06h-.23"/><path class="cls-11" d="M388.52,231.11A42.52,42.52,0,1,1,431,273.62a42.51,42.51,0,0,1-42.51-42.51"/><path class="cls-11" d="M422.22,80.35a28.34,28.34,0,1,1,28.34,28.34,28.34,28.34,0,0,1-28.34-28.34"/><path class="cls-11" d="M235.42,63.42a12.73,12.73,0,1,1,12.72,12.72,12.72,12.72,0,0,1-12.72-12.72"/><path class="cls-4" d="M358.49,364.27a9,9,0,1,1,11.74-4.91,9,9,0,0,1-11.74,4.91"/><path class="cls-12" d="M312.45,297a28.34,28.34,0,1,1,28.34,28.34A28.34,28.34,0,0,1,312.45,297"/><path class="cls-12" d="M167.24,245.65A28.34,28.34,0,1,1,195.58,274a28.34,28.34,0,0,1-28.34-28.34"/><path class="cls-4" d="M148.72,101.37a9.11,9.11,0,1,1,11.88-5,9.11,9.11,0,0,1-11.88,5"/></g></g></svg>